<svg xmlns="http://www.w3.org/2000/svg" version="1.1" xmlns:xlink="http://www.w3.org/1999/xlink" xmlns:svgjs="http://svgjs.com/svgjs" width="512" height="512" x="0" y="0" viewBox="0 0 512 512" style="enable-background:new 0 0 512 512" xml:space="preserve" class=""><g>
<path xmlns="http://www.w3.org/2000/svg" style="" d="M256,494.932c-2.542,0-5.057-0.671-7.274-1.941L53.351,380.193c-4.505-2.609-7.297-7.45-7.297-12.641  v-225.57c0-2.552,0.674-5.072,1.949-7.287c1.279-2.227,3.135-4.081,5.363-5.358L248.703,16.556  c4.501-2.597,10.092-2.598,14.591-0.002L458.658,129.35c2.236,1.309,4.064,3.142,5.329,5.325c0.004,0.007,0.008,0.013,0.011,0.019  c1.275,2.215,1.949,4.735,1.949,7.287v225.57c0,5.178-2.785,10.014-7.268,12.62L263.297,492.977  C261.057,494.261,258.542,494.932,256,494.932z M61.506,367.058L256,479.347l194.494-112.293V142.48L256,30.187L61.506,142.48  V367.058z" fill="#e6f3ff" data-original="#e6f3ff" class=""></path>
<path xmlns="http://www.w3.org/2000/svg" style="" d="M408.056,169.96v169.613c0,1.846-0.988,3.544-2.576,4.467l-146.898,84.813  c-0.8,0.458-1.691,0.691-2.582,0.691s-1.782-0.232-2.582-0.691l-146.891-84.807c-1.594-0.923-2.582-2.627-2.582-4.473V169.96  c0-0.923,0.245-1.807,0.691-2.582c0.445-0.775,1.084-1.427,1.885-1.885L253.418,80.68c1.601-0.923,3.563-0.923,5.164,0  l146.898,84.813c0.794,0.465,1.439,1.117,1.885,1.885C407.81,168.153,408.056,169.037,408.056,169.96z" fill="#b809b0" data-original="#b809b0"></path>
<path xmlns="http://www.w3.org/2000/svg" style="" d="M408.056,169.96v169.613c0,1.846-0.988,3.544-2.576,4.467l-146.898,84.813  c-0.8,0.458-1.691,0.691-2.582,0.691V79.989c0.891,0,1.782,0.232,2.582,0.691l146.898,84.813  C407.068,166.416,408.056,168.114,408.056,169.96z" fill="#03b7ed" data-original="#03b7ed" class=""></path>
<path xmlns="http://www.w3.org/2000/svg" style="" d="M407.365,167.378l-148.783,85.897c-1.601,0.923-3.563,0.923-5.164,0l-148.783-85.897  c0.445-0.775,1.084-1.427,1.885-1.885L253.418,80.68c1.601-0.923,3.563-0.923,5.164,0l146.898,84.813  C406.274,165.958,406.919,166.61,407.365,167.378z" fill="#47ddd9" data-original="#47ddd9" class=""></path>
<g xmlns="http://www.w3.org/2000/svg">
	<path style="" d="M384.463,331.907c-4.267,0-7.726-3.459-7.726-7.726v-0.696c0-4.267,3.459-7.726,7.726-7.726   s7.726,3.459,7.726,7.726v0.696C392.189,328.448,388.73,331.907,384.463,331.907z" fill="#e6f3ff" data-original="#e6f3ff" class=""></path>
	<path style="" d="M384.463,309.238c-4.267,0-7.726-3.459-7.726-7.726v-0.695c0-4.267,3.459-7.726,7.726-7.726   s7.726,3.459,7.726,7.726v0.695C392.189,305.779,388.73,309.238,384.463,309.238z" fill="#e6f3ff" data-original="#e6f3ff" class=""></path>
	<path style="" d="M384.463,286.57c-4.267,0-7.726-3.459-7.726-7.726v-0.695c0-4.267,3.459-7.726,7.726-7.726   s7.726,3.459,7.726,7.726v0.695C392.189,283.111,388.73,286.57,384.463,286.57z" fill="#e6f3ff" data-original="#e6f3ff" class=""></path>
</g>
<circle xmlns="http://www.w3.org/2000/svg" style="" cx="256" cy="24.794" r="24.794" fill="#03b7ed" data-original="#03b7ed" class=""></circle>
<path xmlns="http://www.w3.org/2000/svg" style="" d="M280.79,24.79c0,13.697-11.093,24.8-24.79,24.8c-13.697,0-24.79-11.103-24.79-24.8  c0-2.338,0.318-4.603,0.933-6.746C235.075,28.45,244.641,36.088,256,36.088c11.359,0,20.925-7.638,23.857-18.044  C280.472,20.186,280.79,22.452,280.79,24.79z" fill="#0085e0" data-original="#0085e0"></path>
<circle xmlns="http://www.w3.org/2000/svg" style="" cx="256" cy="487.2" r="24.794" fill="#7df4e9" data-original="#7df4e9"></circle>
<path xmlns="http://www.w3.org/2000/svg" style="" d="M280.79,487.2c0,13.697-11.093,24.8-24.79,24.8c-13.697,0-24.79-11.103-24.79-24.8  c0-2.338,0.318-4.603,0.933-6.746c2.932,10.406,12.497,18.044,23.857,18.044s20.925-7.638,23.857-18.044  C280.472,482.597,280.79,484.862,280.79,487.2z" fill="#47ddd9" data-original="#47ddd9" class=""></path>
<circle xmlns="http://www.w3.org/2000/svg" style="" cx="458.22" cy="139.07" r="24.794" fill="#b809b0" data-original="#b809b0"></circle>
<path xmlns="http://www.w3.org/2000/svg" style="" d="M483.01,139.07c0,13.697-11.093,24.8-24.79,24.8s-24.79-11.103-24.79-24.8  c0-2.338,0.318-4.603,0.933-6.746c2.932,10.406,12.497,18.044,23.857,18.044s20.925-7.638,23.857-18.044  C482.692,134.467,483.01,136.733,483.01,139.07z" fill="#930593" data-original="#930593"></path>
<circle xmlns="http://www.w3.org/2000/svg" style="" cx="458.22" cy="370.16" r="24.794" fill="#b809b0" data-original="#b809b0"></circle>
<path xmlns="http://www.w3.org/2000/svg" style="" d="M483.01,370.151c0,13.697-11.093,24.8-24.79,24.8s-24.79-11.103-24.79-24.8  c0-2.337,0.318-4.603,0.933-6.746c2.932,10.406,12.497,18.044,23.857,18.044s20.925-7.638,23.857-18.044  C482.692,365.548,483.01,367.814,483.01,370.151z" fill="#930593" data-original="#930593"></path>
<circle xmlns="http://www.w3.org/2000/svg" style="" cx="53.78" cy="139.07" r="24.794" fill="#03b7ed" data-original="#03b7ed" class=""></circle>
<path xmlns="http://www.w3.org/2000/svg" style="" d="M78.57,139.07c0,13.697-11.093,24.8-24.79,24.8s-24.79-11.103-24.79-24.8  c0-2.338,0.318-4.603,0.933-6.746c2.932,10.406,12.497,18.044,23.857,18.044s20.925-7.638,23.857-18.044  C78.252,134.467,78.57,136.733,78.57,139.07z" fill="#0085e0" data-original="#0085e0"></path>
<circle xmlns="http://www.w3.org/2000/svg" style="" cx="53.78" cy="370.16" r="24.794" fill="#7df4e9" data-original="#7df4e9"></circle>
<path xmlns="http://www.w3.org/2000/svg" style="" d="M78.57,370.151c0,13.697-11.093,24.8-24.79,24.8s-24.79-11.103-24.79-24.8  c0-2.337,0.318-4.603,0.933-6.746c2.932,10.406,12.497,18.044,23.857,18.044s20.925-7.638,23.857-18.044  C78.252,365.548,78.57,367.814,78.57,370.151z" fill="#47ddd9" data-original="#47ddd9" class=""></path>
<g xmlns="http://www.w3.org/2000/svg">
</g>
<g xmlns="http://www.w3.org/2000/svg">
</g>
<g xmlns="http://www.w3.org/2000/svg">
</g>
<g xmlns="http://www.w3.org/2000/svg">
</g>
<g xmlns="http://www.w3.org/2000/svg">
</g>
<g xmlns="http://www.w3.org/2000/svg">
</g>
<g xmlns="http://www.w3.org/2000/svg">
</g>
<g xmlns="http://www.w3.org/2000/svg">
</g>
<g xmlns="http://www.w3.org/2000/svg">
</g>
<g xmlns="http://www.w3.org/2000/svg">
</g>
<g xmlns="http://www.w3.org/2000/svg">
</g>
<g xmlns="http://www.w3.org/2000/svg">
</g>
<g xmlns="http://www.w3.org/2000/svg">
</g>
<g xmlns="http://www.w3.org/2000/svg">
</g>
<g xmlns="http://www.w3.org/2000/svg">
</g>
</g></svg>